<svg width="37" height="28" viewBox="0 0 37 28" fill="none" xmlns="http://www.w3.org/2000/svg">
<path fill-rule="evenodd" clip-rule="evenodd" d="M19.4251 24.3902L19.421 27.2743C20.0194 27.299 32.5321 27.3483 33.3149 27.2579C35.1387 27.0442 36.5978 25.5816 36.7617 23.7328C36.9503 21.6334 35.4666 19.9982 33.8518 19.5997C32.5649 19.2833 25.8352 19.5052 23.5892 19.4764C22.081 19.4559 22.0031 18.0426 22.8556 17.603C23.4376 17.303 35.0445 17.492 36.7495 17.492L36.774 14.5914C35.8314 14.575 23.5236 14.5134 22.7572 14.6243C18.4579 15.2447 18.3513 21.4156 22.4416 22.2907C24.3105 22.6893 30.4788 22.2045 32.8518 22.3852C34.0158 22.4715 34.2166 23.8232 33.3067 24.2751C32.7001 24.575 21.2121 24.3409 19.421 24.3902H19.4251ZM0.207331 27.3113L7.44936 27.3031V27.3113H10.3634V27.3031L17.5931 27.2948L17.5849 24.3902C15.175 24.4025 12.7651 24.4025 10.3593 24.4025L10.347 17.5249L17.5931 17.5167L17.5849 14.612C12.011 14.6407 6.44523 14.6161 0.912271 14.6161H0.207331V17.5372L7.45346 17.529C7.46165 19.8256 7.45756 22.1182 7.45346 24.4025C5.26896 24.3984 3.08857 24.3984 0.912271 24.3984H0.207331V27.3195V27.3113ZM29.4951 9.73934L29.4828 3.16578H31.9829C33.7862 3.15756 33.8067 3.46159 33.8067 5.20358C33.8067 7.78781 33.819 10.3762 33.8067 12.9604L36.7208 12.9563C36.6798 10.7911 37.0322 4.03266 36.3601 2.58237C34.9133 -0.531852 31.4952 0.265192 27.9951 0.265192C24.2573 0.265192 21.0809 -0.433248 19.6915 2.644C19.0645 4.03266 19.3801 10.8938 19.3596 12.9645L22.2613 12.9604C22.2449 10.3474 22.2654 7.73029 22.2613 5.11319C22.2572 3.34655 22.4293 3.16578 24.1958 3.16988H26.5934C26.6016 5.25699 26.5852 7.33999 26.5852 9.41066V9.74345H29.4992L29.4951 9.73934ZM6.2567 3.09593C5.91243 3.09593 5.56405 3.09593 5.21568 3.09593C3.48202 3.09593 3.17873 3.11647 3.18283 4.9242V5.09676L14.6832 5.08033V8.00145H14.2078C10.5519 8.00145 6.87147 7.98091 3.18283 8.00556V8.08773C3.17464 9.89546 3.47792 9.916 5.21568 9.916C7.79363 9.916 15.0152 9.92833 17.5931 9.916L17.589 12.8371C15.4291 12.796 4.04761 13.1494 2.60495 12.4756C0.412255 11.4156 0.190937 9.12717 0.207331 6.54294C0.190937 3.95871 0.412255 1.67029 2.60495 0.610304C3.17464 0.343254 4.57222 0.236433 6.18702 0.203565H6.19112C6.33867 0.199457 6.48621 0.199457 6.63786 0.195348V0.203565L17.6013 0.195348L17.5972 3.10415C15.4578 3.09182 9.14203 3.10415 6.57228 3.10415H6.55179H6.53949H6.5313H6.5108H6.49031H6.46982H6.44933H6.42883H6.42474H6.40424H6.38375H6.36326H6.34277H6.32227H6.31408H6.29768H6.27719L6.2567 3.09593Z" fill="white"/>
</svg>
