<svg xmlns="http://www.w3.org/2000/svg" width="14" height="14" viewBox="0 0 14 14" fill="none">
    <path d="M9.50553 7.00012H10.9561C10.9561 4.99837 9.33147 3.37375 7.32971 3.37375V4.8243C8.53367 4.8243 9.50553 5.79617 9.50553 7.00012ZM12.4066 7.00012H13.8572C13.8572 3.39551 10.9343 0.472656 7.32971 0.472656V1.9232C10.1365 1.9232 12.4066 4.19331 12.4066 7.00012ZM13.1319 9.53858C12.2253 9.53858 11.355 9.39353 10.5427 9.12517C10.4701 9.10342 10.3904 9.08891 10.3178 9.08891C10.1293 9.08891 9.94795 9.16144 9.8029 9.29924L8.20729 10.8948C6.15477 9.85045 4.47213 8.17507 3.42774 6.11529L5.02334 4.51243C5.22642 4.32386 5.28444 4.041 5.20466 3.78716C4.93631 2.97485 4.79125 2.10452 4.79125 1.19793C4.79125 0.79903 4.46488 0.472656 4.06598 0.472656H1.52752C1.12862 0.472656 0.802246 0.79903 0.802246 1.19793C0.802246 8.00825 6.32158 13.5276 13.1319 13.5276C13.5308 13.5276 13.8572 13.2012 13.8572 12.8023V10.2639C13.8572 9.86495 13.5308 9.53858 13.1319 9.53858ZM2.27455 1.9232H3.36246C3.41323 2.56145 3.52202 3.19243 3.68884 3.79441L2.81851 4.67199C2.5284 3.79441 2.33983 2.88057 2.27455 1.9232ZM12.4066 12.0553C11.4493 11.99 10.5209 11.8014 9.65059 11.5041L10.5209 10.6337C11.1374 10.8078 11.7684 10.9166 12.4066 10.9601V12.0553Z" fill="#262D3D"/>
</svg>
