<svg width="16" height="16" viewBox="0 0 16 16" fill="none" xmlns="http://www.w3.org/2000/svg">
<path d="M8.08732 16C5.84084 16 3.93134 15.2136 2.3588 13.6409C0.786268 12.0682 0 10.1584 0 7.91163C0 5.88953 0.595317 4.1745 1.78595 2.76652C2.97658 1.35855 4.53789 0.45235 6.46986 0.0479311C7.0839 -0.0718966 7.50324 0.0329525 7.72789 0.362479C7.95253 0.692005 7.94505 1.14136 7.70542 1.71054C7.57063 2.05505 7.4658 2.40704 7.39091 2.76652C7.31603 3.12601 7.27859 3.49298 7.27859 3.86744C7.27859 5.2155 7.75035 6.36136 8.69387 7.305C9.63739 8.24864 10.7831 8.72046 12.131 8.72046C12.5054 8.72046 12.8686 8.68676 13.2205 8.61936C13.5725 8.55196 13.9132 8.45834 14.2427 8.33851C14.8867 8.09886 15.3659 8.11009 15.6804 8.37221C15.9949 8.63434 16.0773 9.07995 15.9275 9.70904C15.5232 11.5214 14.6171 13.023 13.2093 14.2138C11.8015 15.4046 10.0942 16 8.08732 16ZM8.08732 14.6519C9.71976 14.6519 11.1425 14.1464 12.3556 13.1354C13.5687 12.1243 14.325 10.9373 14.6246 9.57424C14.2502 9.739 13.8495 9.86257 13.4227 9.94495C12.9959 10.0273 12.5653 10.0685 12.131 10.0685C10.4087 10.0685 8.94473 9.46564 7.73912 8.25988C6.53351 7.05411 5.9307 5.58996 5.9307 3.86744C5.9307 3.50796 5.96815 3.12226 6.04303 2.71035C6.11791 2.29845 6.2527 1.83037 6.44739 1.30612C4.97969 1.71054 3.76285 2.53061 2.79687 3.76634C1.83088 5.00206 1.34789 6.38382 1.34789 7.91163C1.34789 9.78394 2.00311 11.3754 3.31356 12.686C4.624 13.9966 6.21526 14.6519 8.08732 14.6519Z" fill="#262D3D"/>
</svg>
